#!OML:ASF F:\VICON\USERDATA\Patient Classification 1\PLAYGROUND\JustinFriday\JustinFriday.ASF
:FULLY-SPECIFIED
:DEGREES
2269
root -19.4662 30.1429 -9.21117 256.146 83.7573 -132.826
lowerback 36.9758 -2.88725 3.87403
upperback 16.7504 -0.00424953 1.33114
thorax 0.0401491 0.937592 -0.620166
lowerneck 6.554 -9.60999 -5.63124
upperneck -36.117 -9.06512 18.8859
head -11.4018 -5.39821 9.1548
rclavicle -5.60573e-014 2.19657e-014
rhumerus 44.2028 6.86959 -70.0529
rradius 87.117
rwrist 14.0365
rhand -8.92926 -18.3487
rfingers 7.12502
rthumb 17.0145 -47.6236
lclavicle -5.60573e-014 2.19657e-014
lhumerus 37.4745 2.54306 62.0878
lradius 85.5489
lwrist -17.6434
lhand 0.774962 -7.35072
lfingers 7.12502
lthumb 26.3324 20.8413
rfemur -49.4565 -0.340775 29.7407
rtibia 34.5617
rfoot -38.1049 -6.47954
rtoes 21.4398
lfemur -51.7107 7.06278 -19.5608
ltibia 35.9472
lfoot -35.4815 -9.68612
ltoes 9.36506
2270
root -19.3931 30.1572 -9.18151 257.787 84.162 -131.157
lowerback 37.1803 -2.53216 2.72971
upperback 16.7817 0.0666969 1.14497
thorax 0.00274985 0.913149 -0.243739
lowerneck 6.73867 -9.42394 -5.48652
upperneck -35.8087 -8.57492 19.5492
head -11.3584 -5.29357 9.35175
rclavicle 6.48038e-014 4.5969e-014
rhumerus 42.5113 6.65135 -69.4952
rradius 89.0573
rwrist 12.9451
rhand -9.37382 -18.4892
rfingers 7.12502
rthumb 16.5866 -47.8004
lclavicle 6.48038e-014 4.5969e-014
lhumerus 37.0345 3.51005 62.5128
lradius 85.5339
lwrist -19.8632
lhand 2.61541 -11.3587
lfingers 7.12502
lthumb 28.093 16.5574
rfemur -49.0583 0.58675 29.0194
rtibia 34.4015
rfoot -37.1792 -10.1153
rtoes 13.8335
lfemur -51.4889 7.84299 -20.103
ltibia 36.0005
lfoot -35.5167 -10.2268
ltoes 9.55566
2271
root -19.3053 30.158 -9.17115 260.827 83.7999 -128.183
lowerback 37.1939 -2.70303 2.416
upperback 16.8143 -0.269241 0.628431
thorax 0.0259279 0.757338 -0.514393
lowerneck 6.8444 -9.00759 -5.13632
upperneck -35.2045 -7.56592 20.6354
head -11.2633 -5.02051 9.61987
rclavicle 2.38542e-015 1.83876e-015
rhumerus 42.7703 7.99286 -71.23
rradius 88.7002
rwrist 13.6826
rhand -9.87834 -18.2747
rfingers 7.12502
rthumb 16.1008 -47.6258
lclavicle 2.38542e-015 1.83876e-015
lhumerus 35.8758 3.12459 60.4532
lradius 86.2791
lwrist -17.7927
lhand -0.217119 -7.59082
lfingers 7.12502
lthumb 25.3824 20.7397
rfemur -48.5222 1.84221 28.87
rtibia 33.9347
rfoot -37.7057 -8.99355
rtoes 18.7645
lfemur -51.0271 6.75566 -18.9947
ltibia 36.2216
lfoot -36.8104 -3.65014
ltoes -1.67879
2272
root -19.2122 30.1938 -9.16956 266.473 83.3618 -122.769
lowerback 37.1092 -2.0377 2.76573
upperback 16.9056 0.682144 1.49478
thorax 0.168799 1.18978 -0.0879502
lowerneck 6.59261 -9.63774 -8.05417
upperneck -35.0572 -8.60484 22.6545
head -10.5671 -5.40731 10.8849
rclavicle -1.13307e-014 -9.93923e-016
rhumerus 41.7573 7.05824 -69.2262
rradius 89.4233
rwrist 13.4001
rhand -10.5827 -18.1787
rfingers 7.12502
rthumb 15.4225 -47.5834
lclavicle -1.13307e-014 -9.93923e-016
lhumerus 36.1133 2.28248 62.5926
lradius 86.3511
lwrist -18.618
lhand 0.245001 -8.5906
lfingers 7.12502
lthumb 25.825 19.6762
rfemur -48.129 2.48721 29.4274
rtibia 33.564
rfoot -37.3262 -9.55375
rtoes 16.8878
lfemur -50.8378 6.90366 -18.0302
ltibia 36.279
lfoot -36.9613 -3.7581
ltoes -0.91464
2273
root -19.1349 30.2456 -9.19618 264.999 83.0419 -124.631
lowerback 36.8945 -2.05221 3.80546
upperback 16.7866 0.960103 1.44676
thorax 0.132567 1.38551 -0.765672
lowerneck 6.21532 -9.85835 -9.64921
upperneck -34.0925 -8.96308 24.0442
head -9.79867 -5.56899 11.5242
rclavicle 9.64106e-015 -5.34234e-016
rhumerus 40.6367 6.26211 -69.0344
rradius 89.633
rwrist 13.8479
rhand -10.9107 -17.486
rfingers 7.12502
rthumb 15.1065 -46.9147
lclavicle 9.64106e-015 -5.34234e-016
lhumerus 36.2989 1.11382 63.008
lradius 86.4589
lwrist -18.5522
lhand 0.826003 -9.49644
lfingers 7.12502
lthumb 26.3813 18.6882
rfemur -48.1219 1.24557 30.3194
rtibia 33.3318
rfoot -36.6706 -9.7112
rtoes 13.5001
lfemur -50.9006 5.78263 -16.6887
ltibia 36.1669
lfoot -35.6048 -10.0806
ltoes 14.791
2274
root -19.0461 30.2749 -9.19346 262.425 82.9813 -127.09
lowerback 36.961 -2.38509 3.44967
upperback 16.8324 0.493208 1.92454
thorax 0.138045 1.11305 0.0650037
lowerneck 6.87399 -10.1856 -8.64812
upperneck -35.6712 -9.7422 22.1483
head -10.6276 -5.81312 10.8989
rclavicle -5.64548e-014 -6.17723e-014
rhumerus 40.0197 7.34637 -67.9667
rradius 90.2376
rwrist 13.9625
rhand -10.6065 -16.154
rfingers 7.12502
rthumb 15.3995 -45.5604
lclavicle -5.64548e-014 -6.17723e-014
lhumerus 34.7516 1.84202 63.32
lradius 87.2001
lwrist -18.164
lhand 0.615375 -9.47024
lfingers 7.12502
lthumb 26.1797 18.7445
rfemur -47.6765 1.01019 30.3066
rtibia 33.3973
rfoot -36.7027 -10.1836
rtoes 13.0317
lfemur -50.0507 3.69651 -15.2798
ltibia 36.0168
lfoot -35.4711 -10.5519
ltoes 19.8406
2275
root -18.9562 30.2886 -9.20314 260.532 83.6659 -128.926
lowerback 36.8825 -2.15773 3.25494
upperback 17.0528 0.702896 1.30452
thorax 0.412271 1.25989 -0.542452
lowerneck 6.61024 -10.6771 -5.52864
upperneck -36.1949 -10.1075 21.0697
head -11.0887 -6.22557 10.0314
rclavicle -1.30204e-014 -2.08724e-014
rhumerus 38.9337 6.05768 -68.8029
rradius 90.505
rwrist 14.8042
rhand -10.2608 -14.7016
rfingers 7.12502
rthumb 15.7324 -44.0821
lclavicle -1.30204e-014 -2.08724e-014
lhumerus 34.7203 0.704758 61.8731
lradius 88.1674
lwrist -17.9842
lhand 0.540918 -9.50612
lfingers 7.12502
lthumb 26.1084 18.7192
rfemur -47.3463 2.18224 28.685
rtibia 33.5924
rfoot -37.029 -11.1932
rtoes 14.3329
lfemur -49.3241 2.75018 -15.7959
ltibia 35.8394
lfoot -36.307 -7.7085
ltoes 15.5365
